<svg width="24" height="22" viewBox="0 0 24 22" fill="none" xmlns="http://www.w3.org/2000/svg">
<path d="M5.49999 6.00003H16.5C16.5657 6.00007 16.6307 5.98717 16.6914 5.96206C16.7521 5.93695 16.8072 5.90012 16.8537 5.85368C16.9001 5.80724 16.9369 5.7521 16.962 5.69141C16.9872 5.63073 17.0001 5.56569 17 5.50002C17.0001 5.43434 16.9872 5.3693 16.962 5.30862C16.9369 5.24793 16.9001 5.19279 16.8537 5.14636C16.8072 5.09992 16.7521 5.06309 16.6914 5.03797C16.6307 5.01286 16.5657 4.99996 16.5 5H5.49999C5.43431 4.99996 5.36927 5.01286 5.30859 5.03797C5.2479 5.06309 5.19276 5.09992 5.14632 5.14636C5.09989 5.19279 5.06306 5.24793 5.03794 5.30862C5.01283 5.3693 4.99993 5.43434 4.99997 5.50002C4.99994 5.56569 5.01285 5.63072 5.03797 5.6914C5.06309 5.75208 5.09992 5.80721 5.14635 5.85365C5.19279 5.90009 5.24792 5.93692 5.3086 5.96203C5.36928 5.98715 5.43431 6.00006 5.49999 6.00003ZM11.5 11H5.49999C5.43431 11 5.36927 11.0129 5.30859 11.038C5.2479 11.0631 5.19276 11.1 5.14632 11.1464C5.09989 11.1928 5.06306 11.248 5.03794 11.3087C5.01283 11.3693 4.99993 11.4344 4.99997 11.5001C4.99993 11.5657 5.01283 11.6308 5.03794 11.6915C5.06306 11.7521 5.09989 11.8073 5.14632 11.8537C5.19276 11.9002 5.2479 11.937 5.30859 11.9621C5.36927 11.9872 5.43431 12.0001 5.49999 12.0001H11.5C11.5657 12.0001 11.6307 11.9872 11.6914 11.9621C11.7521 11.937 11.8072 11.9002 11.8536 11.8537C11.9001 11.8073 11.9369 11.7521 11.962 11.6915C11.9871 11.6308 12 11.5657 12 11.5001C12 11.4344 11.9871 11.3693 11.962 11.3087C11.9369 11.248 11.9001 11.1928 11.8536 11.1464C11.8072 11.1 11.7521 11.0631 11.6914 11.038C11.6307 11.0129 11.5657 11 11.5 11Z" fill="#F7F7F7"/>
<path d="M22.086 2.00002C22.057 2.00002 22.0289 2.00728 22 2.00864V2.00002C22 0.897 21.1026 0 20 0H2.00002C0.897469 0 0 0.897 0 2.00002V21.5C2.06935e-05 21.5989 0.0293447 21.6955 0.0842675 21.7777C0.13919 21.86 0.217248 21.9241 0.308578 21.9619C0.370125 21.9878 0.435516 22 0.499969 22C0.629859 22 0.757781 21.9493 0.8535 21.8535L5.70703 17H20C21.1026 17 22 16.1031 22 15V6.70678L23.4395 5.26758V5.26711C23.7959 4.91067 24 4.4175 24 3.91406C24 2.85844 23.1416 2.00002 22.086 2.00002ZM21 15C21 15.5513 20.5517 16 20 16H5.49998C5.43432 16 5.3693 16.0129 5.30864 16.038C5.24798 16.0632 5.19287 16.1 5.14645 16.1465L0.999984 20.293V2.00002C0.999984 1.44877 1.44825 1.00003 1.99997 1.00003H20C20.5518 1.00003 21 1.44877 21 2.00002V2.34155C20.9051 2.4068 20.8143 2.47856 20.7324 2.56055L15.2921 8.00002H5.49998C5.43431 7.99997 5.36927 8.01288 5.30859 8.03799C5.2479 8.0631 5.19276 8.09993 5.14632 8.14637C5.09988 8.19281 5.06306 8.24795 5.03794 8.30863C5.01283 8.36932 4.99993 8.43436 4.99997 8.50003C4.99993 8.56571 5.01283 8.63075 5.03794 8.69143C5.06306 8.75211 5.09988 8.80725 5.14632 8.85369C5.19276 8.90013 5.2479 8.93696 5.30859 8.96207C5.36927 8.98719 5.43431 9.00009 5.49998 9.00005H14.4899L14.0098 11.4019C13.9766 11.566 14.0283 11.7354 14.1465 11.8536C14.2403 11.9473 14.3674 12 14.5 12C14.5323 12 14.5655 11.9966 14.5977 11.9903L17.0967 11.4903C17.1937 11.4712 17.2828 11.4236 17.3526 11.3535L21 7.70667V15ZM16.7529 10.5396L15.1377 10.8628L15.461 9.24562L19.9998 4.70681L21.2929 5.99995L16.7529 10.5396ZM22.7324 4.56056L22 5.29298L20.7067 3.99975L21.4394 3.26709C21.6114 3.09657 21.8437 3.00062 22.0859 3C22.5898 3 23 3.41016 23 3.91406C23 4.1543 22.9023 4.39017 22.7324 4.56056Z" fill="#F7F7F7"/>
</svg>
