<svg width="24" height="19" viewBox="0 0 24 19" fill="none" xmlns="http://www.w3.org/2000/svg">
<path d="M24 6.25977L11.9887 0L0 6.26197L5.67494 9.24134V13.9808H18.3499V9.24036L21.1562 7.75995V13.1261L19.7433 16.2089L21.8578 18.5926L23.9723 16.2089L22.5594 13.1261V7.01975L24 6.25977ZM21.8578 16.4782L21.3999 15.962L21.8578 14.963L22.3157 15.962L21.8578 16.4782ZM16.9468 12.5777H7.07808V8.02356C8.6234 7.32096 10.2733 6.96513 11.9891 6.96513C13.7074 6.96513 15.4121 7.33022 16.9468 8.02412V12.5777ZM18.3499 7.65392V7.14646C18.1237 7.06269 15.6675 5.56199 11.9891 5.56199C8.31275 5.56199 5.95393 7.04206 5.67494 7.14646V7.65654L3.0246 6.2651L11.9894 1.58264L20.9784 6.26734L18.3499 7.65392Z" fill="#F7F7F7"/>
</svg>
