<svg width="24" height="23" viewBox="0 0 24 23" fill="none" xmlns="http://www.w3.org/2000/svg">
<path d="M21.8545 2.72727H19.2727V1.23636C19.2727 0.545455 18.7273 0 18.0364 0C17.3455 0 16.8 0.545455 16.8 1.23636V2.72727H6.47273V1.23636C6.47273 0.545455 5.92727 0 5.23636 0C4.54545 0 4 0.581818 4 1.23636V2.72727H1.41818C0.618182 2.72727 0 3.38182 0 4.14545V21.2727C0 22.0364 0.618182 22.6909 1.41818 22.6909H21.8545C22.6182 22.6909 23.2727 22.0727 23.2727 21.2727V4.14545C23.2727 3.38182 22.6545 2.72727 21.8545 2.72727ZM18.0364 0.727273C18.3273 0.727273 18.5818 0.981818 18.5818 1.27273V4.14545C18.5818 4.43636 18.3273 4.69091 18.0364 4.69091C17.7455 4.69091 17.4909 4.43636 17.4909 4.14545V1.27273C17.4909 0.945455 17.7455 0.727273 18.0364 0.727273ZM5.23636 0.727273C5.52727 0.727273 5.78182 0.981818 5.78182 1.27273V4.14545C5.78182 4.43636 5.52727 4.69091 5.23636 4.69091C4.94545 4.69091 4.69091 4.43636 4.69091 4.14545V1.27273C4.72727 0.945455 4.94545 0.727273 5.23636 0.727273ZM1.41818 3.45455H4V4.14545C4 4.83636 4.54545 5.38182 5.23636 5.38182C5.92727 5.38182 6.47273 4.83636 6.47273 4.14545V3.45455H16.8V4.14545C16.8 4.83636 17.3455 5.38182 18.0364 5.38182C18.7273 5.38182 19.2727 4.8 19.2727 4.10909V3.41818H21.8909C22.2909 3.41818 22.5818 3.74545 22.5818 4.10909V6.14546H0.690909V4.10909C0.690909 3.74545 1.01818 3.45455 1.41818 3.45455ZM21.8545 21.9636H1.41818C1.01818 21.9636 0.727273 21.6364 0.727273 21.2727V6.87273H22.5818V21.2727C22.5818 21.6727 22.2545 21.9636 21.8545 21.9636Z" fill="#F7F7F7"/>
<path d="M15.6364 12.6547H12.8C12.6182 12.6547 12.4364 12.8001 12.4364 13.0183V15.8547C12.4364 16.0365 12.5818 16.2183 12.8 16.2183H15.6364C15.8182 16.2183 16 16.0728 16 15.8547V13.0183C16 12.8365 15.8182 12.6547 15.6364 12.6547ZM15.2727 15.491H13.1636V13.3819H15.2727V15.491ZM15.6364 8.29102H12.8C12.6182 8.29102 12.4364 8.43647 12.4364 8.65465V11.491C12.4364 11.6728 12.5818 11.8547 12.8 11.8547H15.6364C15.8182 11.8547 16 11.7092 16 11.491V8.65465C16 8.43647 15.8182 8.29102 15.6364 8.29102ZM15.2727 11.091H13.1636V8.98192H15.2727V11.091ZM20.8 12.6547H17.9636C17.7818 12.6547 17.6 12.8001 17.6 13.0183V15.8547C17.6 16.0365 17.7455 16.2183 17.9636 16.2183H20.8C20.9818 16.2183 21.1636 16.0728 21.1636 15.8547V13.0183C21.1636 12.8365 20.9818 12.6547 20.8 12.6547ZM20.4364 15.491H18.3273V13.3819H20.4364V15.491ZM15.3455 17.6001L13.7455 19.2001L13.0909 18.5092C12.9455 18.3637 12.7273 18.3637 12.5818 18.5092C12.4364 18.6547 12.4364 18.8728 12.5818 19.0183L13.4909 19.9274C13.5636 20.0001 13.6364 20.0365 13.7455 20.0365C13.8182 20.0365 13.9273 20.0001 14 19.9274L15.8545 18.0728C16 17.9274 16 17.7092 15.8545 17.5637C15.7091 17.4547 15.4909 17.4547 15.3455 17.6001ZM20.8 8.29102H17.9636C17.7818 8.29102 17.6 8.43647 17.6 8.65465V11.491C17.6 11.6728 17.7455 11.8547 17.9636 11.8547H20.8C20.9818 11.8547 21.1636 11.7092 21.1636 11.491V8.65465C21.1636 8.43647 20.9818 8.29102 20.8 8.29102ZM20.4364 11.091H18.3273V8.98192H20.4364V11.091ZM10.4727 12.6547H7.63637C7.45455 12.6547 7.27273 12.8001 7.27273 13.0183V15.8547C7.27273 16.0365 7.41818 16.2183 7.63637 16.2183H10.4727C10.6545 16.2183 10.8364 16.0728 10.8364 15.8547V13.0183C10.8 12.8365 10.6545 12.6547 10.4727 12.6547ZM10.1091 15.491H8V13.3819H10.1091V15.491ZM10.4727 17.0547H7.63637C7.45455 17.0547 7.27273 17.2001 7.27273 17.4183V20.2547C7.27273 20.4365 7.41818 20.6183 7.63637 20.6183H10.4727C10.6545 20.6183 10.8364 20.4728 10.8364 20.2547V17.4183C10.8 17.2001 10.6545 17.0547 10.4727 17.0547ZM10.1091 19.8547H8V17.7456H10.1091V19.8547ZM10.4727 8.29102H7.63637C7.45455 8.29102 7.27273 8.43647 7.27273 8.65465V11.491C7.27273 11.6728 7.41818 11.8547 7.63637 11.8547H10.4727C10.6545 11.8547 10.8364 11.7092 10.8364 11.491V8.65465C10.8 8.43647 10.6545 8.29102 10.4727 8.29102ZM10.1091 11.091H8V8.98192H10.1091V11.091ZM5.27273 12.6547H2.47273C2.29091 12.6547 2.10909 12.8001 2.10909 13.0183V15.8547C2.10909 16.0365 2.25455 16.2183 2.47273 16.2183H5.30909C5.49091 16.2183 5.67273 16.0728 5.67273 15.8547V13.0183C5.63637 12.8365 5.49091 12.6547 5.27273 12.6547ZM4.94546 15.491H2.83637V13.3819H4.94546V15.491ZM5.27273 17.0547H2.47273C2.29091 17.0547 2.10909 17.2001 2.10909 17.4183V20.2547C2.10909 20.4365 2.25455 20.6183 2.47273 20.6183H5.30909C5.49091 20.6183 5.67273 20.4728 5.67273 20.2547V17.4183C5.63637 17.2001 5.49091 17.0547 5.27273 17.0547ZM4.94546 19.8547H2.83637V17.7456H4.94546V19.8547ZM5.27273 8.29102H2.47273C2.29091 8.29102 2.10909 8.43647 2.10909 8.65465V11.491C2.10909 11.6728 2.25455 11.8547 2.47273 11.8547H5.30909C5.49091 11.8547 5.67273 11.7092 5.67273 11.491V8.65465C5.63637 8.43647 5.49091 8.29102 5.27273 8.29102ZM4.94546 11.091H2.83637V8.98192H4.94546V11.091Z" fill="#F7F7F7"/>
</svg>
