<svg width="24" height="19" viewBox="0 0 24 19" fill="none" xmlns="http://www.w3.org/2000/svg">
<path d="M23.699 6.6C23.56 6.41298 23.3789 6.26125 23.1705 6.15703C22.9621 6.05281 22.732 5.99902 22.499 6H21V4.5C20.9993 3.96977 20.7884 3.46145 20.4135 3.08652C20.0386 2.71159 19.5302 2.50066 19 2.5H11.374C11.2252 2.5002 11.0783 2.46707 10.944 2.40304C10.8097 2.33901 10.6915 2.24571 10.598 2.13L9.618 0.924003C9.38422 0.634945 9.08867 0.401915 8.75305 0.242022C8.41743 0.0821283 8.05026 -0.00056858 7.6785 2.94228e-06H2C1.46977 0.00066449 0.961447 0.211591 0.586517 0.58652C0.211588 0.96145 0.000661548 1.46977 0 2L0 16.7855C0.000661692 17.3726 0.234187 17.9355 0.649343 18.3507C1.0645 18.7658 1.62738 18.9993 2.2145 19H19.046C19.5249 18.9983 19.9905 18.8421 20.3737 18.5548C20.7569 18.2675 21.0372 17.8643 21.173 17.405L23.9395 7.92C24.0057 7.69656 24.0185 7.46069 23.9768 7.23141C23.9351 7.00213 23.8396 6.78585 23.699 6.6ZM2.214 18C1.89206 17.9996 1.58343 17.8715 1.35583 17.6438C1.12824 17.4161 1.00026 17.1074 1 16.7855V2C1.00026 1.73487 1.10571 1.48067 1.29319 1.29319C1.48066 1.10571 1.73486 1.00027 2 1H7.6775C7.90079 0.999428 8.12137 1.04895 8.32299 1.14491C8.52461 1.24087 8.70214 1.38084 8.8425 1.5545L9.8215 2.761C10.0087 2.99228 10.2453 3.1787 10.5139 3.30658C10.7826 3.43446 11.0765 3.50055 11.374 3.5H19C19.2651 3.50027 19.5193 3.60571 19.7068 3.79319C19.8943 3.98067 19.9997 4.23487 20 4.5V6H8.286C7.80725 6.00195 7.34187 6.15817 6.95891 6.44549C6.57594 6.7328 6.29579 7.1359 6.16 7.595L3.38 17.1255C3.30552 17.3772 3.15193 17.5981 2.942 17.7557C2.73206 17.9132 2.47646 17.9989 2.214 18ZM22.979 7.64L20.213 17.125C20.1384 17.3771 19.9846 17.5983 19.7742 17.756C19.5639 17.9136 19.3083 17.9992 19.0455 18H4.065C4.18621 17.8168 4.27909 17.6164 4.3405 17.4055L7.1205 7.875C7.19496 7.62328 7.34853 7.40224 7.55846 7.24464C7.76839 7.08704 8.0235 7.00126 8.286 7H22.5C22.5776 7 22.6542 7.01808 22.7236 7.05279C22.793 7.0875 22.8534 7.1379 22.9 7.2C22.9466 7.2621 22.9781 7.33419 22.9919 7.41056C23.0058 7.48693 23.0017 7.56549 22.98 7.64H22.979Z" fill="#F7F7F7"/>
</svg>
