<svg width="19" height="24" viewBox="0 0 19 24" fill="none" xmlns="http://www.w3.org/2000/svg">
<path d="M16.4559 3.14444H14.2846V2.1731C14.2846 1.85884 13.9418 1.71601 13.6276 1.71601H11.942C11.5421 0.573235 10.5421 0.00184981 9.39934 0.00184981C8.26915 -0.0406391 7.24116 0.652362 6.85668 1.71601H5.19967C4.8854 1.71601 4.57114 1.85884 4.57114 2.1731V3.14444H2.39983C1.11313 3.15817 0.0604797 4.1732 0 5.45853V21.8287C0 23.0857 1.14277 23.9999 2.39983 23.9999H16.4559C17.713 23.9999 18.8557 23.0857 18.8557 21.8287V5.45858C18.7952 4.1732 17.7426 3.15817 16.4559 3.14444ZM5.71385 2.85878H7.28518C7.41879 2.84247 7.54365 2.78371 7.64137 2.69114C7.73909 2.59857 7.80452 2.47707 7.82802 2.34454C7.99721 1.60773 8.64362 1.07884 9.39934 1.05893C10.1481 1.08163 10.7847 1.61216 10.9421 2.34454C10.967 2.4814 11.0366 2.60613 11.14 2.69919C11.2434 2.79225 11.3747 2.84838 11.5135 2.85878H13.1419V5.14432H5.71385V2.85878ZM17.713 21.8287C17.713 22.4573 17.0844 22.8572 16.4559 22.8572H2.39983C1.7713 22.8572 1.14277 22.4573 1.14277 21.8287V5.45858C1.20106 4.80435 1.74308 4.29924 2.39983 4.28727H4.57108V5.7443C4.60127 6.06442 4.87851 6.30388 5.19961 6.28715H13.6275C13.7852 6.29577 13.9404 6.24471 14.0621 6.14412C14.1839 6.04354 14.2633 5.9008 14.2846 5.7443V4.28721H16.4558C17.1125 4.29924 17.6546 4.8043 17.7129 5.45853V21.8287H17.713Z" fill="#F7F7F7"/>
<path d="M7.22804 12.7724C7.01373 12.5465 6.65796 12.5338 6.42808 12.7439L4.59963 14.4866L3.82827 13.6866C3.61396 13.4607 3.25819 13.448 3.02831 13.6581C2.92177 13.7697 2.86232 13.918 2.86232 14.0723C2.86232 14.2266 2.92177 14.375 3.02831 14.4866L4.19962 15.6865C4.2497 15.7426 4.31147 15.787 4.38057 15.8166C4.44967 15.8462 4.52443 15.8603 4.59958 15.8579C4.75029 15.8558 4.89405 15.7942 4.99953 15.6865L7.22793 13.5724C7.44885 13.3697 7.46361 13.0263 7.2609 12.8054C7.25049 12.7939 7.23952 12.7829 7.22804 12.7724ZM15.4274 14.0009H8.8565C8.54093 14.0009 8.28512 14.2567 8.28512 14.5723C8.28512 14.8878 8.54093 15.1436 8.8565 15.1436H15.4274C15.743 15.1436 15.9988 14.8878 15.9988 14.5723C15.9988 14.2567 15.743 14.0009 15.4274 14.0009ZM7.22804 8.20133C7.01373 7.97543 6.65796 7.96269 6.42808 8.17278L4.59963 9.91549L3.82827 9.11552C3.61396 8.88963 3.25819 8.87689 3.02831 9.08698C2.92177 9.19858 2.86232 9.34694 2.86232 9.50123C2.86232 9.65552 2.92177 9.80388 3.02831 9.91549L4.19962 11.1154C4.2497 11.1715 4.31147 11.2159 4.38057 11.2455C4.44967 11.2751 4.52443 11.2892 4.59958 11.2868C4.75029 11.2847 4.89405 11.2231 4.99953 11.1154L7.22793 9.00129C7.44885 8.79863 7.46361 8.45522 7.2609 8.23436C7.25049 8.22282 7.23952 8.2118 7.22804 8.20133ZM15.4274 9.42979H8.8565C8.54093 9.42979 8.28512 9.6856 8.28512 10.0012C8.28512 10.3168 8.54093 10.5726 8.8565 10.5726H15.4274C15.743 10.5726 15.9988 10.3168 15.9988 10.0012C15.9988 9.6856 15.743 9.42979 15.4274 9.42979ZM7.22804 17.3434C7.01373 17.1175 6.65796 17.1049 6.42808 17.3149L4.59963 19.0576L3.82827 18.2576C3.61396 18.0317 3.25819 18.0191 3.02831 18.2291C2.92177 18.3407 2.86232 18.4891 2.86232 18.6433C2.86232 18.7976 2.92177 18.946 3.02831 19.0576L4.19962 20.2575C4.2497 20.3136 4.31147 20.358 4.38057 20.3876C4.44967 20.4172 4.52443 20.4313 4.59958 20.4289C4.75029 20.4268 4.89405 20.3652 4.99953 20.2575L7.22793 18.1434C7.44885 17.9407 7.46361 17.5973 7.2609 17.3765C7.25046 17.365 7.23949 17.3539 7.22804 17.3434ZM15.4274 18.572H8.8565C8.54093 18.572 8.28512 18.8278 8.28512 19.1433C8.28512 19.4589 8.54093 19.7147 8.8565 19.7147H15.4274C15.743 19.7147 15.9988 19.4589 15.9988 19.1433C15.9988 18.8278 15.743 18.572 15.4274 18.572Z" fill="#F7F7F7"/>
</svg>
