<svg width="22" height="16" viewBox="0 0 22 16" fill="none" xmlns="http://www.w3.org/2000/svg">
<path fill-rule="evenodd" clip-rule="evenodd" d="M14.5 3.75C14.5 1.68 12.82 0 10.75 0C8.68 0 7 1.68 7 3.75C7 5.82 8.68 7.5 10.75 7.5C12.82 7.5 14.5 5.82 14.5 3.75ZM13 3.75C12.9999 4.04561 12.9415 4.33829 12.8283 4.61134C12.715 4.8844 12.5491 5.13247 12.34 5.34141C12.1309 5.55034 11.8827 5.71603 11.6095 5.82904C11.3363 5.94204 11.0436 6.00013 10.748 6C10.4524 5.99987 10.1597 5.94152 9.88666 5.82827C9.6136 5.71503 9.36553 5.54911 9.1566 5.33999C8.94766 5.13087 8.78197 4.88265 8.66896 4.6095C8.55596 4.33634 8.49787 4.04361 8.498 3.748C8.49827 3.151 8.73568 2.57855 9.15801 2.1566C9.58034 1.73464 10.153 1.49774 10.75 1.498C11.347 1.49827 11.9194 1.73568 12.3414 2.15801C12.7634 2.58034 13.0003 3.153 13 3.75ZM10.75 8C9.22501 8 7.76247 8.6058 6.68414 9.68414C5.6058 10.7625 5 12.225 5 13.75V14.75C5 15.164 5.336 15.5 5.75 15.5H15.75C15.9489 15.5 16.1397 15.421 16.2803 15.2803C16.421 15.1397 16.5 14.9489 16.5 14.75V13.75C16.5 12.225 15.8942 10.7625 14.8159 9.68414C13.7375 8.6058 12.275 8 10.75 8ZM10.75 9.5C11.8772 9.5 12.9582 9.94777 13.7552 10.7448C14.5522 11.5418 15 12.6228 15 13.75V14H6.5V13.75C6.5 12.6228 6.94777 11.5418 7.7448 10.7448C8.54183 9.94777 9.62283 9.5 10.75 9.5ZM20.042 6.292C20.0422 5.73975 19.8786 5.19985 19.5719 4.74058C19.2653 4.2813 18.8293 3.92329 18.3191 3.71182C17.809 3.50034 17.2476 3.44491 16.7059 3.55253C16.1643 3.66014 15.6667 3.92598 15.2761 4.3164C14.8855 4.70683 14.6195 5.20432 14.5117 5.74594C14.4039 6.28756 14.4591 6.84899 14.6704 7.35922C14.8817 7.86945 15.2396 8.30556 15.6987 8.61239C16.1579 8.91923 16.6978 9.083 17.25 9.083C17.9902 9.08274 18.7001 8.78863 19.2236 8.2653C19.7471 7.74198 20.0415 7.03223 20.042 6.292ZM18.542 6.292C18.5326 6.62831 18.3925 6.9477 18.1513 7.18226C17.9101 7.41683 17.5869 7.54806 17.2505 7.54806C16.9141 7.54806 16.5909 7.41683 16.3497 7.18226C16.1085 6.9477 15.9684 6.62831 15.959 6.292C15.9542 6.11937 15.984 5.94754 16.0468 5.78665C16.1095 5.62575 16.2039 5.47907 16.3243 5.35527C16.4447 5.23148 16.5887 5.13307 16.7478 5.06587C16.9069 4.99868 17.0778 4.96406 17.2505 4.96406C17.4232 4.96406 17.5941 4.99868 17.7532 5.06587C17.9123 5.13307 18.0563 5.23148 18.1767 5.35527C18.2971 5.47907 18.3915 5.62575 18.4542 5.78665C18.517 5.94754 18.5468 6.11937 18.542 6.292Z" fill="#F7F7F7"/>
<path fill-rule="evenodd" clip-rule="evenodd" d="M13.75 15.5H20.75C20.9489 15.5 21.1397 15.421 21.2803 15.2804C21.421 15.1397 21.5 14.9489 21.5 14.75V13.87C21.4984 12.7443 21.0498 11.6652 20.2528 10.8701C19.4559 10.075 18.3758 9.62896 17.25 9.63002C17.0511 9.63002 16.8603 9.70904 16.7197 9.84969C16.579 9.99035 16.5 10.1811 16.5 10.38C16.5 10.5789 16.579 10.7697 16.7197 10.9104C16.8603 11.051 17.0511 11.13 17.25 11.13C17.6105 11.1294 17.9676 11.1997 18.3008 11.3371C18.6341 11.4744 18.9371 11.676 19.1925 11.9305C19.4478 12.1849 19.6506 12.4872 19.7891 12.8199C19.9277 13.1527 19.9993 13.5095 20 13.87V14H13.75C13.5511 14 13.3603 14.079 13.2197 14.2197C13.079 14.3603 13 14.5511 13 14.75C13 14.9489 13.079 15.1397 13.2197 15.2804C13.3603 15.421 13.5511 15.5 13.75 15.5ZM7.042 6.29202C7.0422 5.73978 6.87862 5.19987 6.57195 4.7406C6.26528 4.28133 5.8293 3.92331 5.31915 3.71184C4.80899 3.50037 4.24758 3.44493 3.70592 3.55255C3.16426 3.66017 2.66668 3.926 2.27611 4.31643C1.88554 4.70686 1.61953 5.20434 1.51172 5.74597C1.40391 6.28759 1.45914 6.84902 1.67043 7.35925C1.88172 7.86948 2.23958 8.30558 2.69874 8.61242C3.15791 8.91925 3.69775 9.08302 4.25 9.08302C4.99023 9.08276 5.70008 8.78866 6.2236 8.26533C6.74711 7.742 7.04147 7.03225 7.042 6.29202ZM5.542 6.29202C5.53264 6.62833 5.39247 6.94772 5.15129 7.18229C4.9101 7.41685 4.58694 7.54808 4.2505 7.54808C3.91406 7.54808 3.5909 7.41685 3.34971 7.18229C3.10853 6.94772 2.96836 6.62833 2.959 6.29202C2.9542 6.1194 2.98405 5.94756 3.04679 5.78667C3.10953 5.62578 3.2039 5.4791 3.3243 5.3553C3.4447 5.2315 3.5887 5.13309 3.74778 5.0659C3.90687 4.9987 4.07781 4.96408 4.2505 4.96408C4.42319 4.96408 4.59413 4.9987 4.75322 5.0659C4.9123 5.13309 5.0563 5.2315 5.1767 5.3553C5.2971 5.4791 5.39147 5.62578 5.45421 5.78667C5.51695 5.94756 5.5468 6.1194 5.542 6.29202ZM7.75 14H1.5V13.87C1.50066 13.5095 1.57231 13.1527 1.71086 12.8199C1.84942 12.4872 2.05216 12.1849 2.30753 11.9305C2.56289 11.676 2.86586 11.4744 3.19915 11.3371C3.53244 11.1997 3.88952 11.1294 4.25 11.13C4.44891 11.13 4.63968 11.051 4.78033 10.9104C4.92098 10.7697 5 10.5789 5 10.38C5 10.1811 4.92098 9.99035 4.78033 9.84969C4.63968 9.70904 4.44891 9.63002 4.25 9.63002C3.12424 9.62896 2.04413 10.075 1.24716 10.8701C0.450186 11.6652 0.00159031 12.7443 0 13.87V14.75C0 15.164 0.336 15.5 0.75 15.5H7.75C7.94891 15.5 8.13968 15.421 8.28033 15.2804C8.42098 15.1397 8.5 14.9489 8.5 14.75C8.5 14.5511 8.42098 14.3603 8.28033 14.2197C8.13968 14.079 7.94891 14 7.75 14Z" fill="#F7F7F7"/>
</svg>
