<svg width="21" height="24" viewBox="0 0 21 24" fill="none" xmlns="http://www.w3.org/2000/svg">
<path d="M4.5 0C3.675 0 3 0.675 3 1.5V22.5C3 23.325 3.675 24 4.5 24H19.5C20.325 24 21 23.325 21 22.5V6L15 0H4.5Z" fill="#E2E5E7"/>
<path d="M16.5 6H21L15 0V4.5C15 5.325 15.675 6 16.5 6Z" fill="#B0B7BD"/>
<path d="M21 10.5L16.5 6H21V10.5Z" fill="#CAD1D8"/>
<path d="M18 19.5C18 19.9125 17.6625 20.25 17.25 20.25H0.75C0.3375 20.25 0 19.9125 0 19.5V12C0 11.5875 0.3375 11.25 0.75 11.25H17.25C17.6625 11.25 18 11.5875 18 12V19.5Z" fill="#F15642"/>
<path d="M3.26953 14.2099C3.26953 14.0119 3.42553 13.7959 3.67678 13.7959H5.06203C5.84203 13.7959 6.54403 14.3179 6.54403 15.3184C6.54403 16.2664 5.84203 16.7944 5.06203 16.7944H4.06078V17.5864C4.06078 17.8504 3.89278 17.9996 3.67678 17.9996C3.47878 17.9996 3.26953 17.8504 3.26953 17.5864V14.2099ZM4.06078 14.5511V16.0451H5.06203C5.46403 16.0451 5.78203 15.6904 5.78203 15.3184C5.78203 14.8991 5.46403 14.5511 5.06203 14.5511H4.06078ZM7.71853 17.9996C7.52053 17.9996 7.30453 17.8916 7.30453 17.6284V14.2219C7.30453 14.0066 7.52053 13.8499 7.71853 13.8499H9.09178C11.8323 13.8499 11.7723 17.9996 9.14578 17.9996H7.71853ZM8.09653 14.5819V17.2684H9.09178C10.711 17.2684 10.783 14.5819 9.09178 14.5819H8.09653ZM12.7443 14.6299V15.5831H14.2735C14.4895 15.5831 14.7055 15.7991 14.7055 16.0084C14.7055 16.2064 14.4895 16.3684 14.2735 16.3684H12.7443V17.6276C12.7443 17.8376 12.595 17.9989 12.385 17.9989C12.121 17.9989 11.9598 17.8376 11.9598 17.6276V14.2211C11.9598 14.0059 12.1218 13.8491 12.385 13.8491H14.4903C14.7543 13.8491 14.9103 14.0059 14.9103 14.2211C14.9103 14.4131 14.7543 14.6291 14.4903 14.6291H12.7443V14.6299Z" fill="white"/>
<path d="M17.25 20.25H3V21H17.25C17.6625 21 18 20.6625 18 20.25V19.5C18 19.9125 17.6625 20.25 17.25 20.25Z" fill="#CAD1D8"/>
</svg>
